<?xml version="1.0" encoding="UTF-8" standalone="no"?>
<!-- Created with Inkscape (http://www.inkscape.org/) -->

<svg
   xmlns:dc="http://purl.org/dc/elements/1.1/"
   xmlns:cc="http://creativecommons.org/ns#"
   xmlns:rdf="http://www.w3.org/1999/02/22-rdf-syntax-ns#"
   xmlns:svg="http://www.w3.org/2000/svg"
   xmlns="http://www.w3.org/2000/svg"
   xmlns:sodipodi="http://sodipodi.sourceforge.net/DTD/sodipodi-0.dtd"
   xmlns:inkscape="http://www.inkscape.org/namespaces/inkscape"
   version="1.1"
   id="svg2"
   xml:space="preserve"
   width="982.67999"
   height="982.67999"
   viewBox="0 0 982.67999 982.67999"
   sodipodi:docname="WeDoCal.svg"
   inkscape:version="0.92.1 r15371"><metadata
     id="metadata8"><rdf:RDF><cc:Work
         rdf:about=""><dc:format>image/svg+xml</dc:format><dc:type
           rdf:resource="http://purl.org/dc/dcmitype/StillImage" /><dc:title></dc:title></cc:Work></rdf:RDF></metadata><defs
     id="defs6"><clipPath
       clipPathUnits="userSpaceOnUse"
       id="clipPath18"><path
         d="M 0,737.01 H 737.01 V 0 H 0 Z"
         id="path16"
         inkscape:connector-curvature="0" /></clipPath><clipPath
       clipPathUnits="userSpaceOnUse"
       id="clipPath66"><path
         d="m 281.595,394.418 c 0,0 -76.699,-132.012 -86.219,-148.409 v 0 c -10.493,-18.08 9.32,-49.173 44.253,-69.45 v 0 c 34.933,-20.276 71.76,-22.057 82.254,-3.978 v 0 c 10.494,18.08 131.703,218.337 131.703,218.337 v 0 c 7.825,12.532 -11.863,16.559 -40.424,16.558 v 0 C 361.745,407.475 281.595,394.418 281.595,394.418"
         id="path64"
         inkscape:connector-curvature="0" /></clipPath><linearGradient
       x1="0"
       y1="0"
       x2="1"
       y2="0"
       gradientUnits="userSpaceOnUse"
       gradientTransform="matrix(130.23755,-75.591698,-75.591698,-130.23755,251.97607,343.52344)"
       spreadMethod="pad"
       id="linearGradient78"><stop
         style="stop-opacity:1;stop-color:#be1622"
         offset="0"
         id="stop72" /><stop
         style="stop-opacity:1;stop-color:#be1622"
         offset="0.42269279"
         id="stop74" /><stop
         style="stop-opacity:1;stop-color:#7e1210"
         offset="1"
         id="stop76" /></linearGradient><clipPath
       clipPathUnits="userSpaceOnUse"
       id="clipPath88"><path
         d="m 238.713,298.572 c -1.891,-3.258 -0.783,-7.434 2.475,-9.324 v 0 c 3.259,-1.891 7.434,-0.784 9.326,2.474 v 0 c 1.89,3.258 0.782,7.434 -2.476,9.325 v 0 c -1.078,0.626 -2.256,0.923 -3.419,0.923 v 0 c -2.352,0 -4.641,-1.217 -5.906,-3.398"
         id="path86"
         inkscape:connector-curvature="0" /></clipPath><clipPath
       clipPathUnits="userSpaceOnUse"
       id="clipPath96"><path
         d="M -32768,32767 H 32767 V -32768 H -32768 Z"
         id="path94"
         inkscape:connector-curvature="0" /></clipPath><linearGradient
       x1="0"
       y1="0"
       x2="1"
       y2="0"
       gradientUnits="userSpaceOnUse"
       gradientTransform="matrix(11.800733,-6.8493099,-6.8493099,-11.800733,238.71289,298.57227)"
       spreadMethod="pad"
       id="linearGradient102"><stop
         style="stop-opacity:0.4;stop-color:#ffffff"
         offset="0"
         id="stop98" /><stop
         style="stop-opacity:0.50000763;stop-color:#ffffff"
         offset="1"
         id="stop100" /></linearGradient><mask
       maskUnits="userSpaceOnUse"
       x="0"
       y="0"
       width="1"
       height="1"
       id="mask104"><g
         id="g114"><g
           clip-path="url(#clipPath96)"
           id="g112"><g
             id="g110"><g
               id="g108"><path
                 d="M -32768,32767 H 32767 V -32768 H -32768 Z"
                 style="fill:url(#linearGradient102);stroke:none"
                 id="path106"
                 inkscape:connector-curvature="0" /></g></g></g></g></mask><linearGradient
       x1="0"
       y1="0"
       x2="1"
       y2="0"
       gradientUnits="userSpaceOnUse"
       gradientTransform="matrix(11.800733,-6.8493099,-6.8493099,-11.800733,238.71289,298.57227)"
       spreadMethod="pad"
       id="linearGradient124"><stop
         style="stop-opacity:1;stop-color:#ffffff"
         offset="0"
         id="stop120" /><stop
         style="stop-opacity:1;stop-color:#ffffff"
         offset="1"
         id="stop122" /></linearGradient><clipPath
       clipPathUnits="userSpaceOnUse"
       id="clipPath134"><path
         d="m 228.259,278.431 c -1.536,-2.647 -0.636,-6.038 2.012,-7.574 v 0 c 2.648,-1.537 6.039,-0.638 7.576,2.009 v 0 c 1.537,2.647 0.637,6.04 -2.011,7.577 v 0 c -0.876,0.508 -1.833,0.75 -2.778,0.75 v 0 c -1.911,0 -3.77,-0.99 -4.799,-2.762"
         id="path132"
         inkscape:connector-curvature="0" /></clipPath><clipPath
       clipPathUnits="userSpaceOnUse"
       id="clipPath142"><path
         d="M -32768,32767 H 32767 V -32768 H -32768 Z"
         id="path140"
         inkscape:connector-curvature="0" /></clipPath><linearGradient
       x1="0"
       y1="0"
       x2="1"
       y2="0"
       gradientUnits="userSpaceOnUse"
       gradientTransform="matrix(9.5882273,-5.5651412,-5.5651412,-9.5882273,228.25879,278.43164)"
       spreadMethod="pad"
       id="linearGradient148"><stop
         style="stop-opacity:0.4;stop-color:#ffffff"
         offset="0"
         id="stop144" /><stop
         style="stop-opacity:0.50000763;stop-color:#ffffff"
         offset="1"
         id="stop146" /></linearGradient><mask
       maskUnits="userSpaceOnUse"
       x="0"
       y="0"
       width="1"
       height="1"
       id="mask150"><g
         id="g160"><g
           clip-path="url(#clipPath142)"
           id="g158"><g
             id="g156"><g
               id="g154"><path
                 d="M -32768,32767 H 32767 V -32768 H -32768 Z"
                 style="fill:url(#linearGradient148);stroke:none"
                 id="path152"
                 inkscape:connector-curvature="0" /></g></g></g></g></mask><linearGradient
       x1="0"
       y1="0"
       x2="1"
       y2="0"
       gradientUnits="userSpaceOnUse"
       gradientTransform="matrix(9.5882273,-5.5651412,-5.5651412,-9.5882273,228.25879,278.43164)"
       spreadMethod="pad"
       id="linearGradient170"><stop
         style="stop-opacity:1;stop-color:#ffffff"
         offset="0"
         id="stop166" /><stop
         style="stop-opacity:1;stop-color:#ffffff"
         offset="1"
         id="stop168" /></linearGradient><clipPath
       clipPathUnits="userSpaceOnUse"
       id="clipPath180"><path
         d="m 218.173,260.392 c -1.538,-2.649 -0.636,-6.04 2.013,-7.577 v 0 c 2.647,-1.537 6.038,-0.638 7.574,2.011 v 0 c 1.538,2.648 0.637,6.038 -2.011,7.575 v 0 c -0.876,0.509 -1.833,0.751 -2.778,0.751 v 0 c -1.911,0 -3.77,-0.989 -4.798,-2.76"
         id="path178"
         inkscape:connector-curvature="0" /></clipPath><clipPath
       clipPathUnits="userSpaceOnUse"
       id="clipPath188"><path
         d="M -32768,32767 H 32767 V -32768 H -32768 Z"
         id="path186"
         inkscape:connector-curvature="0" /></clipPath><linearGradient
       x1="0"
       y1="0"
       x2="1"
       y2="0"
       gradientUnits="userSpaceOnUse"
       gradientTransform="matrix(9.5882273,-5.5651412,-5.5651412,-9.5882273,218.17236,260.39062)"
       spreadMethod="pad"
       id="linearGradient194"><stop
         style="stop-opacity:0.4;stop-color:#ffffff"
         offset="0"
         id="stop190" /><stop
         style="stop-opacity:0.50000763;stop-color:#ffffff"
         offset="1"
         id="stop192" /></linearGradient><mask
       maskUnits="userSpaceOnUse"
       x="0"
       y="0"
       width="1"
       height="1"
       id="mask196"><g
         id="g206"><g
           clip-path="url(#clipPath188)"
           id="g204"><g
             id="g202"><g
               id="g200"><path
                 d="M -32768,32767 H 32767 V -32768 H -32768 Z"
                 style="fill:url(#linearGradient194);stroke:none"
                 id="path198"
                 inkscape:connector-curvature="0" /></g></g></g></g></mask><linearGradient
       x1="0"
       y1="0"
       x2="1"
       y2="0"
       gradientUnits="userSpaceOnUse"
       gradientTransform="matrix(9.5882273,-5.5651412,-5.5651412,-9.5882273,218.17236,260.39062)"
       spreadMethod="pad"
       id="linearGradient216"><stop
         style="stop-opacity:1;stop-color:#ffffff"
         offset="0"
         id="stop212" /><stop
         style="stop-opacity:1;stop-color:#ffffff"
         offset="1"
         id="stop214" /></linearGradient><clipPath
       clipPathUnits="userSpaceOnUse"
       id="clipPath226"><path
         d="M 0,737.01 H 737.01 V 0 H 0 Z"
         id="path224"
         inkscape:connector-curvature="0" /></clipPath><clipPath
       clipPathUnits="userSpaceOnUse"
       id="clipPath238"><path
         d="M 358.689,621.124 H 563.674 V 484.13 H 358.689 Z"
         id="path236"
         inkscape:connector-curvature="0" /></clipPath><clipPath
       clipPathUnits="userSpaceOnUse"
       id="clipPath242"><path
         d="m 367.604,621.124 c -0.348,-0.564 -0.694,-1.133 -1.032,-1.714 -8.904,-15.344 -10.506,-31.045 -3.572,-35.069 l 171.02,-99.264 c 6.933,-4.024 19.773,5.154 28.679,20.497 0.336,0.581 0.66,1.163 0.975,1.745 z"
         id="path240"
         inkscape:connector-curvature="0" /></clipPath><clipPath
       clipPathUnits="userSpaceOnUse"
       id="clipPath246"><path
         d="M -32768,32767 H 32767 V -32768 H -32768 Z"
         id="path244"
         inkscape:connector-curvature="0" /></clipPath><linearGradient
       x1="0"
       y1="0"
       x2="1"
       y2="0"
       gradientUnits="userSpaceOnUse"
       gradientTransform="matrix(196.12747,-113.83513,-113.83513,-196.12747,359.01123,606.38281)"
       spreadMethod="pad"
       id="linearGradient252"><stop
         style="stop-opacity:0.70000763;stop-color:#ffffff"
         offset="0"
         id="stop248" /><stop
         style="stop-opacity:1;stop-color:#ffffff"
         offset="1"
         id="stop250" /></linearGradient><mask
       maskUnits="userSpaceOnUse"
       x="0"
       y="0"
       width="1"
       height="1"
       id="mask254"><g
         id="g264"><g
           clip-path="url(#clipPath246)"
           id="g262"><g
             id="g260"><g
               id="g258"><path
                 d="M -32768,32767 H 32767 V -32768 H -32768 Z"
                 style="fill:url(#linearGradient252);stroke:none"
                 id="path256"
                 inkscape:connector-curvature="0" /></g></g></g></g></mask><linearGradient
       x1="0"
       y1="0"
       x2="1"
       y2="0"
       gradientUnits="userSpaceOnUse"
       gradientTransform="matrix(196.12747,-113.83513,-113.83513,-196.12747,359.01123,606.38281)"
       spreadMethod="pad"
       id="linearGradient270"><stop
         style="stop-opacity:1;stop-color:#00655f"
         offset="0"
         id="stop266" /><stop
         style="stop-opacity:1;stop-color:#005752"
         offset="1"
         id="stop268" /></linearGradient><clipPath
       clipPathUnits="userSpaceOnUse"
       id="clipPath296"><path
         d="m 281.667,394.259 c -5.564,-5.564 72.877,4.409 120.923,4.409 v 0 c 48.046,0 50.307,-8.342 52.743,-4.742 v 0 c 1.917,2.834 3.667,12.833 -41.245,13.741 v 0 c -0.854,0.017 -1.756,0.025 -2.693,0.025 v 0 c -35.384,10e-4 -128.268,-11.971 -129.728,-13.433"
         id="path294"
         inkscape:connector-curvature="0" /></clipPath><linearGradient
       x1="0"
       y1="0"
       x2="1"
       y2="0"
       gradientUnits="userSpaceOnUse"
       gradientTransform="matrix(174.70508,0,0,-174.70508,281.38574,400.13184)"
       spreadMethod="pad"
       id="linearGradient312"><stop
         style="stop-opacity:1;stop-color:#7e1210"
         offset="0"
         id="stop302" /><stop
         style="stop-opacity:1;stop-color:#be1622"
         offset="0.23462522"
         id="stop304" /><stop
         style="stop-opacity:1;stop-color:#be1622"
         offset="0.41844"
         id="stop306" /><stop
         style="stop-opacity:1;stop-color:#be1622"
         offset="0.69748861"
         id="stop308" /><stop
         style="stop-opacity:1;stop-color:#7e1210"
         offset="1"
         id="stop310" /></linearGradient><clipPath
       clipPathUnits="userSpaceOnUse"
       id="clipPath322"><path
         d="m 345.469,482.343 -95.033,-163.73 c -1.148,-1.976 0.246,-4.928 3.111,-6.591 v 0 c 2.864,-1.663 6.119,-1.409 7.266,0.568 v 0 l 95.033,163.73 c 1.146,1.976 -0.246,4.927 -3.112,6.589 v 0 c -1.272,0.739 -2.62,1.1 -3.827,1.1 v 0 c -1.511,0 -2.801,-0.567 -3.438,-1.666"
         id="path320"
         inkscape:connector-curvature="0" /></clipPath><clipPath
       clipPathUnits="userSpaceOnUse"
       id="clipPath330"><path
         d="M -32768,32767 H 32767 V -32768 H -32768 Z"
         id="path328"
         inkscape:connector-curvature="0" /></clipPath><linearGradient
       x1="0"
       y1="0"
       x2="1"
       y2="0"
       gradientUnits="userSpaceOnUse"
       gradientTransform="matrix(10.378799,-6.0240002,-6.0240002,-10.378799,297.95068,400.47803)"
       spreadMethod="pad"
       id="linearGradient336"><stop
         style="stop-opacity:0.4;stop-color:#ffffff"
         offset="0"
         id="stop332" /><stop
         style="stop-opacity:0.50000763;stop-color:#ffffff"
         offset="1"
         id="stop334" /></linearGradient><mask
       maskUnits="userSpaceOnUse"
       x="0"
       y="0"
       width="1"
       height="1"
       id="mask338"><g
         id="g348"><g
           clip-path="url(#clipPath330)"
           id="g346"><g
             id="g344"><g
               id="g342"><path
                 d="M -32768,32767 H 32767 V -32768 H -32768 Z"
                 style="fill:url(#linearGradient336);stroke:none"
                 id="path340"
                 inkscape:connector-curvature="0" /></g></g></g></g></mask><linearGradient
       x1="0"
       y1="0"
       x2="1"
       y2="0"
       gradientUnits="userSpaceOnUse"
       gradientTransform="matrix(10.378799,-6.0240002,-6.0240002,-10.378799,297.95068,400.47803)"
       spreadMethod="pad"
       id="linearGradient358"><stop
         style="stop-opacity:1;stop-color:#ffffff"
         offset="0"
         id="stop354" /><stop
         style="stop-opacity:1;stop-color:#ffffff"
         offset="1"
         id="stop356" /></linearGradient><clipPath
       clipPathUnits="userSpaceOnUse"
       id="clipPath368"><path
         d="M 380.057,246.637 524.218,493.168 373.729,580.513 Z"
         id="path366"
         inkscape:connector-curvature="0" /></clipPath><clipPath
       clipPathUnits="userSpaceOnUse"
       id="clipPath376"><path
         d="M -32768,32767 H 32767 V -32768 H -32768 Z"
         id="path374"
         inkscape:connector-curvature="0" /></clipPath><linearGradient
       x1="0"
       y1="0"
       x2="1"
       y2="0"
       gradientUnits="userSpaceOnUse"
       gradientTransform="matrix(143.35997,246.99609,246.99609,-143.35997,305.61279,289.84473)"
       spreadMethod="pad"
       id="linearGradient384"><stop
         style="stop-opacity:0;stop-color:#ffffff"
         offset="0"
         id="stop378" /><stop
         style="stop-opacity:0;stop-color:#ffffff"
         offset="0.58154794"
         id="stop380" /><stop
         style="stop-opacity:0.09999237;stop-color:#ffffff"
         offset="1"
         id="stop382" /></linearGradient><mask
       maskUnits="userSpaceOnUse"
       x="0"
       y="0"
       width="1"
       height="1"
       id="mask386"><g
         id="g396"><g
           clip-path="url(#clipPath376)"
           id="g394"><g
             id="g392"><g
               id="g390"><path
                 d="M -32768,32767 H 32767 V -32768 H -32768 Z"
                 style="fill:url(#linearGradient384);stroke:none"
                 id="path388"
                 inkscape:connector-curvature="0" /></g></g></g></g></mask><linearGradient
       x1="0"
       y1="0"
       x2="1"
       y2="0"
       gradientUnits="userSpaceOnUse"
       gradientTransform="matrix(143.35997,246.99609,246.99609,-143.35997,305.61279,289.84473)"
       spreadMethod="pad"
       id="linearGradient408"><stop
         style="stop-opacity:1;stop-color:#ffffff"
         offset="0"
         id="stop402" /><stop
         style="stop-opacity:1;stop-color:#ffffff"
         offset="0.58154794"
         id="stop404" /><stop
         style="stop-opacity:1;stop-color:#3ab2ba"
         offset="1"
         id="stop406" /></linearGradient><clipPath
       clipPathUnits="userSpaceOnUse"
       id="clipPath418"><path
         d="M 0,737.01 H 737.01 V 0 H 0 Z"
         id="path416"
         inkscape:connector-curvature="0" /></clipPath><clipPath
       clipPathUnits="userSpaceOnUse"
       id="clipPath426"><path
         d="M 374.258,577.949 H 524.746 V 244.073 H 374.258 Z"
         id="path424"
         inkscape:connector-curvature="0" /></clipPath><clipPath
       clipPathUnits="userSpaceOnUse"
       id="clipPath430"><path
         d="m 380.586,244.073 -6.328,333.876 150.488,-87.346 z"
         id="path428"
         inkscape:connector-curvature="0" /></clipPath><clipPath
       clipPathUnits="userSpaceOnUse"
       id="clipPath434"><path
         d="M -32768,32767 H 32767 V -32768 H -32768 Z"
         id="path432"
         inkscape:connector-curvature="0" /></clipPath><linearGradient
       x1="0"
       y1="0"
       x2="1"
       y2="0"
       gradientUnits="userSpaceOnUse"
       gradientTransform="matrix(150.4888,-87.345802,-87.345802,-150.4888,302.57812,454.45166)"
       spreadMethod="pad"
       id="linearGradient440"><stop
         style="stop-opacity:0.70000763;stop-color:#ffffff"
         offset="0"
         id="stop436" /><stop
         style="stop-opacity:1;stop-color:#ffffff"
         offset="1"
         id="stop438" /></linearGradient><mask
       maskUnits="userSpaceOnUse"
       x="0"
       y="0"
       width="1"
       height="1"
       id="mask442"><g
         id="g452"><g
           clip-path="url(#clipPath434)"
           id="g450"><g
             id="g448"><g
               id="g446"><path
                 d="M -32768,32767 H 32767 V -32768 H -32768 Z"
                 style="fill:url(#linearGradient440);stroke:none"
                 id="path444"
                 inkscape:connector-curvature="0" /></g></g></g></g></mask><linearGradient
       x1="0"
       y1="0"
       x2="1"
       y2="0"
       gradientUnits="userSpaceOnUse"
       gradientTransform="matrix(150.4888,-87.345802,-87.345802,-150.4888,302.57812,454.45166)"
       spreadMethod="pad"
       id="linearGradient458"><stop
         style="stop-opacity:1;stop-color:#00655f"
         offset="0"
         id="stop454" /><stop
         style="stop-opacity:1;stop-color:#005752"
         offset="1"
         id="stop456" /></linearGradient><clipPath
       clipPathUnits="userSpaceOnUse"
       id="clipPath484"><path
         d="m 338.539,299.552 -62.17,56.549 -165.491,-62.905 c -3.657,-1.388 -5.375,-5.433 -3.841,-9.032 v 0 c 0.766,-1.795 2.198,-3.136 3.893,-3.863 v 0 c 1.703,-0.728 3.672,-0.83 5.506,-0.135 v 0 l 157.063,59.704 78.109,-71.045 8.131,189.637 67.443,-60.424 133.606,49.992 11.09,-22.901 38.651,52.478 -67.138,6.339 11.198,-23.126 -124.568,-46.611 -83.363,74.686 z"
         id="path482"
         inkscape:connector-curvature="0" /></clipPath><linearGradient
       x1="0"
       y1="0"
       x2="1"
       y2="0"
       gradientUnits="userSpaceOnUse"
       gradientTransform="matrix(-75.756432,195.88481,199.26485,68.066322,396.22559,284.06348)"
       spreadMethod="pad"
       id="linearGradient500"><stop
         style="stop-opacity:1;stop-color:#29235c"
         offset="0"
         id="stop490" /><stop
         style="stop-opacity:1;stop-color:#2c2e83"
         offset="0.5"
         id="stop492" /><stop
         style="stop-opacity:1;stop-color:#29235c"
         offset="0.98907833"
         id="stop494" /><stop
         style="stop-opacity:1;stop-color:#29235c"
         offset="0.989362"
         id="stop496" /><stop
         style="stop-opacity:1;stop-color:#29235c"
         offset="1"
         id="stop498" /></linearGradient></defs><sodipodi:namedview
     pagecolor="#ffffff"
     bordercolor="#666666"
     borderopacity="1"
     objecttolerance="10"
     gridtolerance="10"
     guidetolerance="10"
     inkscape:pageopacity="0"
     inkscape:pageshadow="2"
     inkscape:window-width="749"
     inkscape:window-height="480"
     id="namedview4"
     showgrid="false"
     inkscape:zoom="0.24015957"
     inkscape:cx="491.34"
     inkscape:cy="491.34"
     inkscape:window-x="0"
     inkscape:window-y="0"
     inkscape:window-maximized="0"
     inkscape:current-layer="g10" /><g
     id="g10"
     inkscape:groupmode="layer"
     inkscape:label="WeDoCal"
     transform="matrix(1.3333333,0,0,-1.3333333,0,982.68)"><g
       id="g12"><g
         id="g14"
         clip-path="url(#clipPath18)"><g
           id="g20"
           transform="translate(311.7803,518.1719)"><path
             d="m 0,0 c 0,-4.306 -3.491,-7.796 -7.797,-7.796 -4.306,0 -7.797,3.49 -7.797,7.796 0,4.305 3.491,7.795 7.797,7.795 C -3.491,7.795 0,4.305 0,0"
             style="fill:#00a19a;fill-opacity:1;fill-rule:nonzero;stroke:none"
             id="path22"
             inkscape:connector-curvature="0" /></g><g
           id="g24"
           transform="translate(308.7529,595.3652)"><path
             d="M 0,0 4.389,-11.188 15.957,-15.957 4.77,-20.727 0,-31.914 l -4.77,11.187 -11.188,4.77 11.188,4.769 z"
             style="fill:#00a19a;fill-opacity:1;fill-rule:nonzero;stroke:none"
             id="path26"
             inkscape:connector-curvature="0" /></g><g
           id="g28"
           transform="translate(132.127,257.9346)"><path
             d="m 0,0 3.84,-9.79 10.122,-4.173 -9.789,-4.174 -4.173,-9.79 -4.174,9.79 -9.789,4.174 9.789,4.173 z"
             style="fill:#00a19a;fill-opacity:1;fill-rule:nonzero;stroke:none"
             id="path30"
             inkscape:connector-curvature="0" /></g><g
           id="g32"
           transform="translate(614.1885,542.3086)"><path
             d="m 0,0 3.84,-9.79 10.122,-4.173 -9.789,-4.174 -4.173,-9.79 -4.174,9.79 -9.789,4.174 9.789,4.173 z"
             style="fill:#00a19a;fill-opacity:1;fill-rule:nonzero;stroke:none"
             id="path34"
             inkscape:connector-curvature="0" /></g><g
           id="g36"
           transform="translate(599.8408,605.3149)"><path
             d="m 0,0 3.84,-9.79 10.122,-4.173 -9.789,-4.174 -4.173,-9.79 -4.174,9.79 -9.789,4.174 9.789,4.173 z"
             style="fill:#00a19a;fill-opacity:1;fill-rule:nonzero;stroke:none"
             id="path38"
             inkscape:connector-curvature="0" /></g><g
           id="g40"
           transform="translate(642.1777,581.9668)"><path
             d="m 0,0 3.84,-9.79 10.122,-4.173 -9.789,-4.174 -4.173,-9.79 -4.174,9.79 -9.789,4.174 9.789,4.173 z"
             style="fill:#00a19a;fill-opacity:1;fill-rule:nonzero;stroke:none"
             id="path42"
             inkscape:connector-curvature="0" /></g><g
           id="g44"
           transform="translate(365.1631,167.9258)"><path
             d="m 0,0 3.84,-9.79 10.122,-4.173 -9.789,-4.174 -4.173,-9.79 -4.174,9.79 -9.789,4.174 9.789,4.173 z"
             style="fill:#00a19a;fill-opacity:1;fill-rule:nonzero;stroke:none"
             id="path46"
             inkscape:connector-curvature="0" /></g><g
           id="g48"
           transform="translate(356.8164,122.2666)"><path
             d="m 0,0 3.84,-9.79 10.122,-4.173 -9.789,-4.174 -4.173,-9.79 -4.174,9.79 -9.789,4.174 9.789,4.173 z"
             style="fill:#00a19a;fill-opacity:1;fill-rule:nonzero;stroke:none"
             id="path50"
             inkscape:connector-curvature="0" /></g><g
           id="g52"
           transform="translate(300.9834,123.0557)"><path
             d="m 0,0 3.84,-9.789 10.122,-4.174 -9.789,-4.173 -4.173,-9.79 -4.174,9.79 -9.789,4.173 9.789,4.174 z"
             style="fill:#00a19a;fill-opacity:1;fill-rule:nonzero;stroke:none"
             id="path54"
             inkscape:connector-curvature="0" /></g><g
           id="g56"
           transform="translate(335.4375,164.7217)"><path
             d="m 0,0 c -18.332,-31.584 -67.312,-37.386 -109.396,-12.959 -42.083,24.428 -61.338,69.833 -43.006,101.417 16.628,28.648 190.048,326.133 190.048,326.133 L 189.631,326.04 C 189.631,326.04 18.332,31.583 0,0"
             style="fill:#00a19a;fill-opacity:1;fill-rule:nonzero;stroke:none"
             id="path58"
             inkscape:connector-curvature="0" /></g></g></g><g
       id="g60"><g
         id="g62"
         clip-path="url(#clipPath66)"><g
           id="g68"><g
             id="g70"><path
               d="m 281.595,394.418 c 0,0 -76.699,-132.012 -86.219,-148.409 v 0 c -10.493,-18.08 9.32,-49.173 44.253,-69.45 v 0 c 34.933,-20.276 71.76,-22.057 82.254,-3.978 v 0 c 10.494,18.08 131.703,218.337 131.703,218.337 v 0 c 7.825,12.532 -11.863,16.559 -40.424,16.558 v 0 C 361.745,407.475 281.595,394.418 281.595,394.418"
               style="fill:url(#linearGradient78);stroke:none"
               id="path80"
               inkscape:connector-curvature="0" /></g></g></g></g><g
       id="g82"><g
         id="g84"
         clip-path="url(#clipPath88)"><g
           id="g90"><g
             id="g92" /><g
             id="g116"
             mask="url(#mask104)"><g
               id="g118"><path
                 d="m 238.713,298.572 c -1.891,-3.258 -0.783,-7.434 2.475,-9.324 v 0 c 3.259,-1.891 7.434,-0.784 9.326,2.474 v 0 c 1.89,3.258 0.782,7.434 -2.476,9.325 v 0 c -1.078,0.626 -2.256,0.923 -3.419,0.923 v 0 c -2.352,0 -4.641,-1.217 -5.906,-3.398"
                 style="fill:url(#linearGradient124);stroke:none"
                 id="path126"
                 inkscape:connector-curvature="0" /></g></g></g></g></g><g
       id="g128"><g
         id="g130"
         clip-path="url(#clipPath134)"><g
           id="g136"><g
             id="g138" /><g
             id="g162"
             mask="url(#mask150)"><g
               id="g164"><path
                 d="m 228.259,278.431 c -1.536,-2.647 -0.636,-6.038 2.012,-7.574 v 0 c 2.648,-1.537 6.039,-0.638 7.576,2.009 v 0 c 1.537,2.647 0.637,6.04 -2.011,7.577 v 0 c -0.876,0.508 -1.833,0.75 -2.778,0.75 v 0 c -1.911,0 -3.77,-0.99 -4.799,-2.762"
                 style="fill:url(#linearGradient170);stroke:none"
                 id="path172"
                 inkscape:connector-curvature="0" /></g></g></g></g></g><g
       id="g174"><g
         id="g176"
         clip-path="url(#clipPath180)"><g
           id="g182"><g
             id="g184" /><g
             id="g208"
             mask="url(#mask196)"><g
               id="g210"><path
                 d="m 218.173,260.392 c -1.538,-2.649 -0.636,-6.04 2.013,-7.577 v 0 c 2.647,-1.537 6.038,-0.638 7.574,2.011 v 0 c 1.538,2.648 0.637,6.038 -2.011,7.575 v 0 c -0.876,0.509 -1.833,0.751 -2.778,0.751 v 0 c -1.911,0 -3.77,-0.989 -4.798,-2.76"
                 style="fill:url(#linearGradient216);stroke:none"
                 id="path218"
                 inkscape:connector-curvature="0" /></g></g></g></g></g><g
       id="g220"><g
         id="g222"
         clip-path="url(#clipPath226)"><g
           id="g228"
           transform="translate(566.1582,503.5659)"><path
             d="M 0,0 C -8.906,-15.343 -21.945,-24.406 -29.121,-20.24 L -206.176,82.527 c -7.178,4.165 -5.775,19.981 3.131,35.325 8.906,15.342 21.943,24.405 29.121,20.239 L 3.131,35.324 C 10.307,31.159 8.904,15.343 0,0"
             style="fill:#00a19a;fill-opacity:1;fill-rule:nonzero;stroke:none"
             id="path230"
             inkscape:connector-curvature="0" /></g><g
           id="g232"><g
             id="g234" /><g
             id="g288"><g
               clip-path="url(#clipPath238)"
               id="g286"
               style="opacity:0.19999701"><g
                 id="g284"><g
                   clip-path="url(#clipPath242)"
                   id="g282"><g
                     id="g280"><g
                       id="g272" /><g
                       mask="url(#mask254)"
                       id="g278"><g
                         id="g276"><path
                           d="m 367.604,621.124 c -0.348,-0.564 -0.694,-1.133 -1.032,-1.714 -8.904,-15.344 -10.506,-31.045 -3.572,-35.069 l 171.02,-99.264 c 6.933,-4.024 19.773,5.154 28.679,20.497 0.336,0.581 0.66,1.163 0.975,1.745 z"
                           style="fill:url(#linearGradient270);stroke:none"
                           id="path274"
                           inkscape:connector-curvature="0" /></g></g></g></g></g></g></g></g></g></g><g
       id="g290"><g
         id="g292"
         clip-path="url(#clipPath296)"><g
           id="g298"><g
             id="g300"><path
               d="m 281.667,394.259 c -5.564,-5.564 72.877,4.409 120.923,4.409 v 0 c 48.046,0 50.307,-8.342 52.743,-4.742 v 0 c 1.917,2.834 3.667,12.833 -41.245,13.741 v 0 c -0.854,0.017 -1.756,0.025 -2.693,0.025 v 0 c -35.384,10e-4 -128.268,-11.971 -129.728,-13.433"
               style="fill:url(#linearGradient312);stroke:none"
               id="path314"
               inkscape:connector-curvature="0" /></g></g></g></g><g
       id="g316"><g
         id="g318"
         clip-path="url(#clipPath322)"><g
           id="g324"><g
             id="g326" /><g
             id="g350"
             mask="url(#mask338)"><g
               id="g352"><path
                 d="m 345.469,482.343 -95.033,-163.73 c -1.148,-1.976 0.246,-4.928 3.111,-6.591 v 0 c 2.864,-1.663 6.119,-1.409 7.266,0.568 v 0 l 95.033,163.73 c 1.146,1.976 -0.246,4.927 -3.112,6.589 v 0 c -1.272,0.739 -2.62,1.1 -3.827,1.1 v 0 c -1.511,0 -2.801,-0.567 -3.438,-1.666"
                 style="fill:url(#linearGradient358);stroke:none"
                 id="path360"
                 inkscape:connector-curvature="0" /></g></g></g></g></g><g
       id="g362"><g
         id="g364"
         clip-path="url(#clipPath368)"><g
           id="g370"><g
             id="g372" /><g
             id="g398"
             mask="url(#mask386)"><g
               id="g400"><path
                 d="M 380.057,246.637 524.218,493.168 373.729,580.513 Z"
                 style="fill:url(#linearGradient408);stroke:none"
                 id="path410"
                 inkscape:connector-curvature="0" /></g></g></g></g></g><g
       id="g412"><g
         id="g414"
         clip-path="url(#clipPath418)"><g
           id="g420"><g
             id="g422" /><g
             id="g476"><g
               clip-path="url(#clipPath426)"
               id="g474"
               style="opacity:0.19999701"><g
                 id="g472"><g
                   clip-path="url(#clipPath430)"
                   id="g470"><g
                     id="g468"><g
                       id="g460" /><g
                       mask="url(#mask442)"
                       id="g466"><g
                         id="g464"><path
                           d="m 380.586,244.073 -6.328,333.876 150.488,-87.346 z"
                           style="fill:url(#linearGradient458);stroke:none"
                           id="path462"
                           inkscape:connector-curvature="0" /></g></g></g></g></g></g></g></g></g></g><g
       id="g478"><g
         id="g480"
         clip-path="url(#clipPath484)"><g
           id="g486"><g
             id="g488"><path
               d="m 338.539,299.552 -62.17,56.549 -165.491,-62.905 c -3.657,-1.388 -5.375,-5.433 -3.841,-9.032 v 0 c 0.766,-1.795 2.198,-3.136 3.893,-3.863 v 0 c 1.703,-0.728 3.672,-0.83 5.506,-0.135 v 0 l 157.063,59.704 78.109,-71.045 8.131,189.637 67.443,-60.424 133.606,49.992 11.09,-22.901 38.651,52.478 -67.138,6.339 11.198,-23.126 -124.568,-46.611 -83.363,74.686 z"
               style="fill:url(#linearGradient500);stroke:none"
               id="path502"
               inkscape:connector-curvature="0" /></g></g></g></g></g></svg>